<?xml version="1.0" encoding="UTF-8"?>
<!DOCTYPE svg PUBLIC "-//W3C//DTD SVG 1.1 Tiny//EN" "http://www.w3.org/Graphics/SVG/1.1/DTD/svg11-tiny.dtd">
<svg xmlns="http://www.w3.org/2000/svg" xmlns:xlink="http://www.w3.org/1999/xlink" baseProfile="tiny" height="314.138" viewBox="0 0 277.959 314.138" width="277.959">
<defs>
<radialGradient cx="78.304955" cy="65.163803" fx="78.304955" fy="65.163803" gradientTransform="matrix(1.36346,-3.445848e-2,3.683936e-2,1.457667,-30.19614,-27.25052)" gradientUnits="userSpaceOnUse" id="radialGradient8695" r="34">
<stop offset="0" style="stop-color:#FFFFFF"/>
<stop offset="0.3589" style="stop-color:#00D4FF"/>
<stop offset="1" style="stop-color:#0342DF"/>
<stop offset="1" style="stop-color:#0342DF"/>
</radialGradient>
<linearGradient gradientUnits="userSpaceOnUse" id="linearGradient8707" x1="101.1373" x2="182.1338" xlink:href="#XMLID_32_" y1="124.6235" y2="124.624">
<stop offset="0" style="stop-color:#FFFFFF"/>
<stop offset="0.3589" style="stop-color:#00D4FF"/>
<stop offset="1" style="stop-color:#0342DF"/>
<stop offset="1" style="stop-color:#0342DF"/>
</linearGradient>
<radialGradient cx="130.85527" cy="83.163376" fx="130.85527" fy="83.163376" gradientTransform="matrix(1.23917,-1.597667e-2,1.678182e-2,1.301618,-32.69232,-22.99296)" gradientUnits="userSpaceOnUse" id="radialGradient8709" r="34">
<stop offset="0" style="stop-color:#FFFFFF"/>
<stop offset="0.3589" style="stop-color:#00D4FF"/>
<stop offset="1" style="stop-color:#0342DF"/>
<stop offset="1" style="stop-color:#0342DF"/>
</radialGradient>
<radialGradient cx="129.79462" cy="45.401932" fx="129.79462" fy="45.401932" gradientTransform="matrix(1.270312,-1.153083e-2,1.039863e-2,1.145581,-35.55715,-5.11301)" gradientUnits="userSpaceOnUse" id="radialGradient8711" r="34">
<stop offset="0" style="stop-color:#FFFFFF"/>
<stop offset="0.3589" style="stop-color:#00D4FF"/>
<stop offset="1" style="stop-color:#0342DF"/>
<stop offset="1" style="stop-color:#0342DF"/>
</radialGradient>
<radialGradient cx="179.20685" cy="66.099037" fx="181.20685" fy="66.099037" gradientTransform="matrix(1.322304,-1.297722e-2,1.481629e-2,1.509694,-58.73862,-31.36467)" gradientUnits="userSpaceOnUse" id="radialGradient8713" r="34">
<stop offset="0" style="stop-color:#FFFFFF"/>
<stop offset="0.3589" style="stop-color:#00D4FF"/>
<stop offset="1" style="stop-color:#0342DF"/>
<stop offset="1" style="stop-color:#0342DF"/>
</radialGradient>
</defs>
<g/>
<g>
<g>
<path d="M 41.25 107.875 L 2 123 L 2 261.65625 L 138.96875 312.125 L 275.96875 261.71875 L 275.9375 123.15625 L 236.34375 108 L 236.34375 140.71875 L 244.46875 144.46875 L 244.46875 238.21875 L 138.96875 277.0625 L 33.46875 238.1875 L 33.46875 142.25 L 41.59375 138.5 L 41.25 107.875 z M 17.9375 129.9375 C 20.981366 129.9375 23.46875 132.39363 23.46875 135.4375 C 23.46875 138.48137 20.981366 140.96875 17.9375 140.96875 C 14.893634 140.96875 12.4375 138.48137 12.4375 135.4375 C 12.4375 132.39363 14.893634 129.9375 17.9375 129.9375 z M 260.03125 129.9375 C 263.07512 129.9375 265.53125 132.39363 265.53125 135.4375 C 265.53126 138.48137 263.07512 140.96875 260.03125 140.96875 C 256.98739 140.96875 254.5 138.48137 254.5 135.4375 C 254.49999 132.39363 256.98738 129.9375 260.03125 129.9375 z M 17.9375 234.9375 C 20.981366 234.9375 23.46875 237.39363 23.46875 240.4375 C 23.46875 243.48137 20.981366 245.96875 17.9375 245.96875 C 14.893634 245.96875 12.4375 243.48137 12.4375 240.4375 C 12.4375 237.39363 14.893634 234.9375 17.9375 234.9375 z M 260.03125 234.9375 C 263.07512 234.9375 265.53125 237.39363 265.53125 240.4375 C 265.53126 243.48137 263.07512 245.96875 260.03125 245.96875 C 256.98739 245.96875 254.5 243.48137 254.5 240.4375 C 254.49999 237.39363 256.98738 234.9375 260.03125 234.9375 z M 138.96875 287.25 C 142.01262 287.25 144.5 289.70613 144.5 292.75 C 144.50001 295.79387 142.01262 298.28125 138.96875 298.28125 C 135.92489 298.28125 133.46875 295.79387 133.46875 292.75 C 133.46874 289.70614 135.92488 287.25 138.96875 287.25 z " style="fill:#b5b4b2;stroke:#3f3f3f;stroke-width:2;stroke-linejoin:miter;stroke-miterlimit:3.86369991;stroke-opacity:1" transform="translate(-7.230266e-6,0)"/>
<g>
<linearGradient gradientUnits="userSpaceOnUse" id="XMLID_21_" x1="55.7158" x2="114.251" y1="192.0146" y2="192.0146">
<stop offset="0" style="stop-color:#A6F0FF"/>
<stop offset="0.2065" style="stop-color:#00D4FF"/>
<stop offset="0.7864" style="stop-color:#0342DF"/>
<stop offset="1" style="stop-color:#0342DF"/>
</linearGradient>
<path d="       M55.747,219.928L55.747,219.928l-0.031-68.136h58.535v68.136C81.429,247.627,55.747,219.928,55.747,219.928z" fill="url(#XMLID_21_)" stroke="#00009C" stroke-linejoin="round" stroke-miterlimit="3.8637" stroke-width="2"/>
<linearGradient gradientUnits="userSpaceOnUse" id="XMLID_22_" x1="79.814499" x2="40.834" y1="158.56075" y2="96.641472">
<stop offset="0" style="stop-color:#004BDB"/>
<stop offset="0.5285" style="stop-color:#00D4FF"/>
<stop offset="0.8497" style="stop-color:#FFFFFF"/>
<stop offset="1" style="stop-color:#FFFFFF"/>
</linearGradient>
<polygon fill="url(#XMLID_22_)" points="       41.834,153.688 41.834,100.349 84.983,119.771 84.983,173.11 " stroke="#00009C" stroke-linejoin="round" stroke-miterlimit="3.8637" stroke-width="2" style="fill:url(#XMLID_22_)"/>
<linearGradient gradientUnits="userSpaceOnUse" id="XMLID_23_" x1="74.9131" x2="138.2042" y1="122.001" y2="151.5141">
<stop offset="0" style="stop-color:#00D4FF"/>
<stop offset="0.6149" style="stop-color:#0060E1"/>
<stop offset="1" style="stop-color:#0343DF"/>
</linearGradient>
<polygon fill="url(#XMLID_23_)" points="       84.983,119.797 84.983,173.11 128.133,153.718 128.133,100.404 " stroke="#00009C" stroke-linejoin="round" stroke-miterlimit="3.8637" stroke-width="2"/>
<linearGradient gradientUnits="userSpaceOnUse" id="XMLID_24_" x1="49.965725" x2="126.71858" y1="100.3565" y2="100.3565">
<stop offset="0" style="stop-color:#FFFFFF"/>
<stop offset="0.3589" style="stop-color:#00D4FF"/>
<stop offset="1" style="stop-color:#0342DF"/>
<stop offset="1" style="stop-color:#0342DF"/>
</linearGradient>
<path d="       M128.133,100.404l-43.149,19.367l-43.149-19.422c0,0.292,43.149-19.407,43.149-19.407L128.133,100.404z" fill="url(#XMLID_24_)" stroke="#00009C" stroke-linejoin="round" stroke-miterlimit="3.8637" stroke-width="2" style="fill:url(#XMLID_24_)"/>
</g>
<linearGradient gradientUnits="userSpaceOnUse" id="XMLID_25_" x1="163.7158" x2="222.252" y1="192.0127" y2="192.0127">
<stop offset="0" style="stop-color:#A6F0FF"/>
<stop offset="0.2065" style="stop-color:#00D4FF"/>
<stop offset="0.7864" style="stop-color:#0342DF"/>
<stop offset="1" style="stop-color:#0342DF"/>
</linearGradient>
<path d="      M163.747,219.926L163.747,219.926l-0.031-68.136h58.536v68.136C189.429,247.625,163.747,219.926,163.747,219.926z" fill="url(#XMLID_25_)" stroke="#00009C" stroke-linejoin="round" stroke-miterlimit="3.8637" stroke-width="2"/>
<linearGradient gradientUnits="userSpaceOnUse" id="XMLID_26_" x1="187.8135" x2="155.0031" y1="157.7251" y2="115.7297">
<stop offset="0" style="stop-color:#004BDB"/>
<stop offset="0.8497" style="stop-color:#00D4FF"/>
<stop offset="1" style="stop-color:#00D4FF"/>
</linearGradient>
<polygon fill="url(#XMLID_26_)" points="      149.834,153.687 149.834,100.347 192.983,119.769 192.983,173.108 " stroke="#00009C" stroke-linejoin="round" stroke-miterlimit="3.8637" stroke-width="2"/>
<linearGradient gradientUnits="userSpaceOnUse" id="XMLID_27_" x1="182.9121" x2="246.2032" y1="121.9985" y2="151.5116">
<stop offset="0" style="stop-color:#00D4FF"/>
<stop offset="0.6149" style="stop-color:#0060E1"/>
<stop offset="1" style="stop-color:#0343DF"/>
</linearGradient>
<polygon fill="url(#XMLID_27_)" points="      192.983,119.795 192.983,173.108 236.133,153.716 236.133,100.402 " stroke="#00009C" stroke-linejoin="round" stroke-miterlimit="3.8637" stroke-width="2"/>
<linearGradient gradientUnits="userSpaceOnUse" id="XMLID_28_" x1="149.834" x2="236.1328" y1="100.354" y2="100.354">
<stop offset="0" style="stop-color:#FFFFFF"/>
<stop offset="0.3589" style="stop-color:#00D4FF"/>
<stop offset="1" style="stop-color:#0342DF"/>
<stop offset="1" style="stop-color:#0342DF"/>
</linearGradient>
<path d="      M236.133,100.402l-43.149,19.367l-43.149-19.422c0,0.292,43.149-19.407,43.149-19.407L236.133,100.402z" fill="url(#XMLID_28_)" stroke="#00009C" stroke-linejoin="round" stroke-miterlimit="3.8637" stroke-width="2"/>
<g>
<linearGradient gradientUnits="userSpaceOnUse" id="XMLID_29_" x1="109.7158" x2="168.252" y1="216.2822" y2="216.2822">
<stop offset="0" style="stop-color:#A6F0FF"/>
<stop offset="0.2065" style="stop-color:#00D4FF"/>
<stop offset="0.7864" style="stop-color:#0342DF"/>
<stop offset="1" style="stop-color:#0342DF"/>
</linearGradient>
<path d="       M109.747,244.195L109.747,244.195l-0.031-68.136h58.536v68.136C135.429,271.895,109.747,244.195,109.747,244.195z" fill="url(#XMLID_29_)" stroke="#00009C" stroke-linejoin="round" stroke-miterlimit="3.8637" stroke-width="2"/>
<linearGradient gradientUnits="userSpaceOnUse" id="XMLID_30_" x1="130.98508" x2="90.591362" y1="185.88419" y2="118.66625">
<stop offset="0" style="stop-color:#004BDB"/>
<stop offset="0.5285" style="stop-color:#00D4FF"/>
<stop offset="0.8497" style="stop-color:#FFFFFF"/>
<stop offset="1" style="stop-color:#FFFFFF"/>
</linearGradient>
<polygon fill="url(#XMLID_30_)" points="       95.834,177.956 95.834,124.616 138.983,144.039 138.983,197.378 " stroke="#00009C" stroke-linejoin="round" stroke-miterlimit="3.8637" stroke-width="2" style="fill:url(#XMLID_30_)"/>
<linearGradient gradientUnits="userSpaceOnUse" id="XMLID_31_" x1="128.9126" x2="192.2046" y1="146.2681" y2="175.7816">
<stop offset="0" style="stop-color:#00D4FF"/>
<stop offset="0.6149" style="stop-color:#0060E1"/>
<stop offset="1" style="stop-color:#0343DF"/>
</linearGradient>
<polygon fill="url(#XMLID_31_)" points="       138.983,144.064 138.983,197.378 182.134,177.985 182.134,124.671 " stroke="#00009C" stroke-linejoin="round" stroke-miterlimit="3.8637" stroke-width="2"/>
<linearGradient gradientUnits="userSpaceOnUse" id="XMLID_32_" x1="95.834" x2="182.1338" y1="124.624" y2="124.624">
<stop offset="0" style="stop-color:#FFFFFF"/>
<stop offset="0.3589" style="stop-color:#00D4FF"/>
<stop offset="1" style="stop-color:#0342DF"/>
<stop offset="1" style="stop-color:#0342DF"/>
</linearGradient>
<path d="       M182.134,124.671l-43.15,19.367l-43.149-19.422c0,0.292,43.149-19.407,43.149-19.407L182.134,124.671z" fill="url(#XMLID_32_)" stroke="#00009C" stroke-linejoin="round" stroke-miterlimit="3.8637" stroke-width="2" style="fill:url(#linearGradient8707)"/>
</g>
<g>
<defs>
<circle cx="138.987" cy="52.473" id="XMLID_13_" r="32"/>
</defs>
<circle cx="138.987" cy="52.473" fill="url(#radialGradient8711)" r="32"/>
<use fill="none" stroke="#00009C" stroke-miterlimit="3.8637" stroke-width="4" style="fill:url(#radialGradient8711)" xlink:href="#XMLID_13_"/>
</g>
<g>
<defs>
<circle cx="190.167" cy="72.463" id="XMLID_15_" r="32"/>
</defs>
<circle cx="190.167" cy="72.463" fill="url(#radialGradient8713)" r="32"/>
<use fill="none" stroke="#00009C" stroke-miterlimit="3.8637" stroke-width="4" style="fill:url(#radialGradient8713)" xlink:href="#XMLID_15_"/>
</g>
<g>
<defs>
<circle cx="87.809" cy="72.463" id="XMLID_17_" r="32"/>
</defs>
<circle cx="87.809" cy="72.463" fill="url(#radialGradient8695)" r="32"/>
<use fill="none" stroke="#00009C" stroke-miterlimit="3.8637" stroke-width="4" style="fill:url(#radialGradient8695)" xlink:href="#XMLID_17_"/>
</g>
<g>
<defs>
<circle cx="138.987" cy="90.588" id="XMLID_19_" r="32"/>
</defs>
<circle cx="138.987" cy="90.588" fill="url(#radialGradient8709)" r="32"/>
<use fill="none" stroke="#00009C" stroke-miterlimit="3.8637" stroke-width="4" style="fill:url(#radialGradient8709)" xlink:href="#XMLID_19_"/>
</g>
</g>
</g>
</svg>
